<svg width="79" height="20" viewBox="0 0 79 20" fill="none" xmlns="http://www.w3.org/2000/svg">
	<path d="M30.3045 8.4845C30.0689 10.0276 28.8903 10.0276 27.7498 10.0276H27.1009L27.556 7.14494C27.5827 6.97072 27.7338 6.84272 27.9098 6.84272H28.2076C28.9845 6.84272 29.7169 6.84272 30.0956 7.28539C30.3214 7.55028 30.3907 7.94317 30.3045 8.4845ZM29.8085 4.45605H25.5072C25.2129 4.45605 24.9623 4.67028 24.9169 4.96005L23.1774 15.9903C23.1427 16.2081 23.3116 16.4045 23.532 16.4045H25.5854C25.8796 16.4045 26.1303 16.1903 26.1756 15.8996L26.6449 12.9245C26.6903 12.6329 26.9409 12.4196 27.2352 12.4196H28.5969C31.4307 12.4196 33.0654 11.0481 33.4929 8.33161C33.6858 7.14316 33.5009 6.20894 32.9445 5.55472C32.332 4.8365 31.2476 4.45605 29.8085 4.45605Z" fill="#253D80"/>
	<path d="M39.7951 12.4443C39.596 13.6212 38.6627 14.4114 37.4715 14.4114C36.8733 14.4114 36.3951 14.2194 36.0884 13.8558C35.7844 13.4949 35.668 12.9812 35.7649 12.4087C35.9507 11.2416 36.9 10.4265 38.0733 10.4265C38.6582 10.4265 39.1338 10.6212 39.4467 10.9874C39.7604 11.3572 39.8849 11.8745 39.7951 12.4443ZM42.6662 8.43539H40.6067C40.4315 8.43539 40.2795 8.56339 40.2529 8.73761L40.1613 9.31361L40.0173 9.10472C39.5711 8.45761 38.5773 8.24072 37.5844 8.24072C35.308 8.24072 33.364 9.96428 32.9853 12.3829C32.7889 13.5892 33.068 14.7429 33.7524 15.5474C34.38 16.2869 35.2787 16.5954 36.3471 16.5954C38.1809 16.5954 39.1978 15.4158 39.1978 15.4158L39.1062 15.9883C39.0715 16.2069 39.2404 16.4034 39.46 16.4034H41.3151C41.6102 16.4034 41.8591 16.1892 41.9053 15.8985L43.0182 8.84872C43.0538 8.63183 42.8858 8.43539 42.6662 8.43539Z" fill="#253D80"/>
	<path d="M53.6359 8.43555H51.5657C51.3684 8.43555 51.1826 8.53332 51.0706 8.69776L48.2155 12.9031L47.0057 8.86221C46.9293 8.60977 46.6964 8.43555 46.4324 8.43555H44.3986C44.1515 8.43555 43.9799 8.67732 44.0582 8.91021L46.3382 15.6009L44.1951 18.6267C44.0262 18.8649 44.1959 19.1929 44.4875 19.1929H46.5551C46.7515 19.1929 46.9346 19.0969 47.0466 18.936L53.9311 8.99821C54.0955 8.75999 53.9257 8.43555 53.6359 8.43555Z" fill="#253D80"/>
	<path d="M60.9851 8.4845C60.7504 10.0276 59.5708 10.0276 58.4304 10.0276H57.7815L58.2375 7.14494C58.2642 6.97072 58.4144 6.84272 58.5913 6.84272H58.8891C59.6651 6.84272 60.3984 6.84272 60.7771 7.28539C61.0028 7.55028 61.0713 7.94317 60.9851 8.4845ZM60.4891 4.45605H56.1868C55.8935 4.45605 55.6428 4.67028 55.5966 4.96005L53.8571 15.9903C53.8224 16.2081 53.9913 16.4045 54.2108 16.4045H56.4188C56.6242 16.4045 56.7993 16.2552 56.8313 16.0507L57.3246 12.9245C57.37 12.6329 57.6206 12.4196 57.9148 12.4196H59.2757C62.1095 12.4196 63.7442 11.0481 64.1717 8.33161C64.3646 7.14316 64.1788 6.20894 63.6224 5.55472C63.0126 4.8365 61.9291 4.45605 60.4891 4.45605Z" fill="#189BD7"/>
	<path d="M70.475 12.4443C70.2776 13.6212 69.3425 14.4114 68.1505 14.4114C67.5541 14.4114 67.0741 14.2194 66.7674 13.8558C66.4634 13.4949 66.3487 12.9812 66.4439 12.4087C66.6305 11.2416 67.579 10.4265 68.7523 10.4265C69.3372 10.4265 69.8127 10.6212 70.1256 10.9874C70.4421 11.3572 70.5665 11.8745 70.475 12.4443ZM73.3461 8.43539H71.2874C71.1105 8.43539 70.9603 8.56339 70.9336 8.73761L70.8421 9.31361L70.6972 9.10472C70.251 8.45761 69.2572 8.24072 68.2652 8.24072C65.9887 8.24072 64.0456 9.96428 63.667 12.3829C63.4705 13.5892 63.7496 14.7429 64.4341 15.5474C65.0634 16.2869 65.9603 16.5954 67.0287 16.5954C68.8625 16.5954 69.8794 15.4158 69.8794 15.4158L69.7879 15.9883C69.7532 16.2069 69.9221 16.4034 70.1425 16.4034H71.9976C72.291 16.4034 72.5416 16.1892 72.5879 15.8985L73.7016 8.84872C73.7354 8.63183 73.5674 8.43539 73.3461 8.43539Z" fill="#189BD7"/>
	<path d="M75.7738 4.75925L74.0084 15.9913C73.9738 16.209 74.1427 16.4055 74.3622 16.4055H76.1373C76.4324 16.4055 76.6822 16.1913 76.7275 15.9006L78.4689 4.87126C78.5035 4.65348 78.3347 4.45704 78.1151 4.45704H76.1275C75.9515 4.45615 75.8013 4.58503 75.7738 4.75925Z" fill="#189BD7"/>
	<path d="M5.31336 18.5483L5.64224 16.4585L4.9098 16.4416H1.41113L3.84224 1.02387C3.84936 0.977647 3.87424 0.934092 3.9098 0.902981C3.94535 0.87187 3.99158 0.85498 4.03958 0.85498H9.93913C11.8974 0.85498 13.2494 1.26298 13.9551 2.06743C14.2858 2.4452 14.4965 2.83898 14.5987 3.27276C14.7054 3.72787 14.7071 4.27187 14.6031 4.93587L14.596 4.98387V5.40876L14.9267 5.59632C15.2049 5.74387 15.4271 5.91365 15.5969 6.10743C15.8796 6.43009 16.0627 6.83987 16.14 7.32609C16.22 7.82654 16.1934 8.4212 16.0627 9.09498C15.9116 9.87009 15.668 10.5448 15.3382 11.0968C15.0351 11.6052 14.6494 12.0274 14.1907 12.3545C13.7534 12.6656 13.2325 12.9012 12.6449 13.0523C12.0751 13.2008 11.4254 13.2754 10.7125 13.2754H10.2529C9.92491 13.2754 9.6058 13.3936 9.35513 13.6052C9.10447 13.8212 8.93824 14.1172 8.88758 14.4408L8.85291 14.6292L8.27158 18.3119L8.24491 18.447C8.2378 18.4897 8.22624 18.511 8.20847 18.5252C8.19247 18.5385 8.17024 18.5474 8.14802 18.5474H5.31336V18.5483Z" fill="#253D80"/>
	<path d="M15.2393 5.03369C15.2216 5.14658 15.202 5.26125 15.1789 5.37947C14.4011 9.37414 11.7389 10.7537 8.33978 10.7537H6.60912C6.19312 10.7537 5.84289 11.0559 5.778 11.4657L4.89178 17.0861L4.64112 18.679C4.59934 18.9484 4.80645 19.191 5.07845 19.191H8.14867C8.51223 19.191 8.82067 18.927 8.87845 18.5679L8.90867 18.4124L9.48645 14.7439L9.52378 14.543C9.58067 14.183 9.89001 13.919 10.2536 13.919H10.7131C13.6873 13.919 16.0162 12.711 16.6962 9.2168C16.9807 7.75725 16.8331 6.53769 16.0811 5.6808C15.8518 5.42302 15.57 5.2088 15.2393 5.03369Z" fill="#189BD7"/>
	<path d="M14.4253 4.70929C14.3062 4.67462 14.1836 4.64351 14.0582 4.61506C13.932 4.58751 13.8022 4.56262 13.6689 4.54129C13.2022 4.46573 12.6911 4.43018 12.1427 4.43018H7.51868C7.4049 4.43018 7.29645 4.45595 7.19957 4.50218C6.98623 4.6044 6.82801 4.80617 6.78979 5.05417L5.80579 11.2844L5.77734 11.4657C5.84223 11.056 6.19246 10.7537 6.60846 10.7537H8.33912C11.7382 10.7537 14.4005 9.37329 15.1782 5.37951C15.2013 5.26129 15.2209 5.14573 15.2387 5.03373C15.0422 4.92973 14.8289 4.83996 14.5987 4.76351C14.5427 4.74485 14.484 4.72706 14.4253 4.70929Z" fill="#242E65"/>
	<path d="M6.79024 5.05418C6.82846 4.80707 6.98669 4.60529 7.20002 4.50307C7.2978 4.45685 7.40535 4.43107 7.51913 4.43107H12.1431C12.6907 4.43107 13.2027 4.46662 13.6694 4.54218C13.8027 4.56351 13.9325 4.5884 14.0587 4.61596C14.1849 4.6444 14.3067 4.67551 14.4258 4.71018C14.4845 4.72796 14.5431 4.74573 14.6009 4.7644C14.8302 4.84084 15.0436 4.93062 15.2409 5.03462C15.472 3.55818 15.2391 2.55373 14.4409 1.64351C13.5609 0.641733 11.9725 0.212402 9.94046 0.212402H4.04002C3.62491 0.212402 3.27113 0.514624 3.20624 0.92529L0.749352 16.5013C0.701352 16.8097 0.938685 17.0871 1.2498 17.0871H4.89246L5.80713 11.2853L6.79024 5.05418Z" fill="#253D80"/>
</svg>	